<svg xmlns="http://www.w3.org/2000/svg" width="200" height="200" viewBox="0 0 200 200">
  <rect width="200" height="200" fill="#ffffff"/>
  <rect x="20" y="20" width="60" height="60" rx="8" fill="#1e1f23"/>
  <rect x="30" y="30" width="40" height="40" rx="4" fill="#ffffff"/>
  <rect x="38" y="38" width="24" height="24" rx="2" fill="#1e1f23"/>
  <rect x="120" y="20" width="60" height="60" rx="8" fill="#1e1f23"/>
  <rect x="130" y="30" width="40" height="40" rx="4" fill="#ffffff"/>
  <rect x="138" y="38" width="24" height="24" rx="2" fill="#1e1f23"/>
  <rect x="20" y="120" width="60" height="60" rx="8" fill="#1e1f23"/>
  <rect x="30" y="130" width="40" height="40" rx="4" fill="#ffffff"/>
  <rect x="38" y="138" width="24" height="24" rx="2" fill="#1e1f23"/>
  <rect x="90" y="20" width="12" height="12" fill="#1e1f23"/>
  <rect x="90" y="44" width="12" height="12" fill="#1e1f23"/>
  <rect x="90" y="90" width="12" height="12" fill="#1e1f23"/>
  <rect x="120" y="90" width="12" height="12" fill="#1e1f23"/>
  <rect x="144" y="90" width="12" height="12" fill="#1e1f23"/>
  <rect x="168" y="90" width="12" height="12" fill="#1e1f23"/>
  <rect x="90" y="120" width="12" height="12" fill="#1e1f23"/>
  <rect x="120" y="120" width="12" height="12" fill="#1e1f23"/>
  <rect x="144" y="120" width="12" height="12" fill="#1e1f23"/>
  <rect x="168" y="120" width="12" height="12" fill="#1e1f23"/>
  <rect x="90" y="144" width="12" height="12" fill="#1e1f23"/>
  <rect x="120" y="144" width="12" height="12" fill="#1e1f23"/>
  <rect x="168" y="144" width="12" height="12" fill="#1e1f23"/>
  <rect x="90" y="168" width="12" height="12" fill="#1e1f23"/>
  <rect x="120" y="168" width="12" height="12" fill="#1e1f23"/>
  <rect x="144" y="168" width="12" height="12" fill="#1e1f23"/>
  <rect x="20" y="90" width="12" height="12" fill="#1e1f23"/>
  <rect x="44" y="90" width="12" height="12" fill="#1e1f23"/>
  <rect x="68" y="90" width="12" height="12" fill="#1e1f23"/>
</svg>
